<?xml version="1.0" encoding="UTF-8" standalone="no"?>
<svg
   xmlns:dc="http://purl.org/dc/elements/1.1/"
   xmlns:cc="http://creativecommons.org/ns#"
   xmlns:rdf="http://www.w3.org/1999/02/22-rdf-syntax-ns#"
   xmlns:svg="http://www.w3.org/2000/svg"
   xmlns="http://www.w3.org/2000/svg"
   xmlns:sodipodi="http://sodipodi.sourceforge.net/DTD/sodipodi-0.dtd"
   xmlns:inkscape="http://www.inkscape.org/namespaces/inkscape"
   version="1.1"
   width="284"
   height="104"
   id="svg985"
   sodipodi:docname="Altibox_logo.svg"
   inkscape:version="0.92.4 (5da689c313, 2019-01-14)">
  <metadata
     id="metadata991">
    <rdf:RDF>
      <cc:Work
         rdf:about="">
        <dc:format>image/svg+xml</dc:format>
        <dc:type
           rdf:resource="http://purl.org/dc/dcmitype/StillImage" />
      </cc:Work>
    </rdf:RDF>
  </metadata>
  <defs
     id="defs989" />
  <sodipodi:namedview
     pagecolor="#ffffff"
     bordercolor="#666666"
     borderopacity="1"
     objecttolerance="10"
     gridtolerance="10"
     guidetolerance="10"
     inkscape:pageopacity="0"
     inkscape:pageshadow="2"
     inkscape:window-width="640"
     inkscape:window-height="480"
     id="namedview987"
     showgrid="false"
     inkscape:zoom="0.92592593"
     inkscape:cx="123.1"
     inkscape:cy="52"
     inkscape:window-x="0"
     inkscape:window-y="0"
     inkscape:window-maximized="0"
     inkscape:current-layer="svg985" />
  <title
     id="title973">Altibox logo</title>
  <g
     id="Altibox-group"
     transform="translate(-20.000001,-20)">
    <path
       id="Altibox-shape"
       style="fill:#d73523"
       d="M 72.516932,124 C 43.513059,124 20.000001,100.71752 20.000001,71.998063 20.000001,43.278608 43.513059,20 72.516932,20 H 251.48308 c 29.00388,0 52.51693,23.278608 52.51693,51.998063 C 304.00001,100.71752 280.48696,124 251.48308,124 Z m 0,0"
       inkscape:connector-curvature="0" />
    <path
       id="Altibox-letter1"
       style="fill:#ffffff"
       d="m 80.136761,80.360846 c -0.559649,1.495845 -1.334548,2.797928 -2.328608,3.902374 -0.994061,1.10832 -2.207284,1.988001 -3.635758,2.650669 -1.432386,0.658791 -3.005664,0.992063 -4.719831,0.992063 -1.714167,0 -3.271791,-0.333272 -4.676782,-0.992063 -1.401077,-0.662668 -2.606474,-1.542349 -3.616189,-2.650669 -1.005802,-1.104446 -1.776785,-2.406529 -2.305125,-3.902374 -0.532253,-1.495845 -0.79838,-3.069196 -0.79838,-4.7123 0,-1.670232 0.266127,-3.247458 0.79838,-4.731677 0.52834,-1.484219 1.299323,-2.778551 2.305125,-3.882997 1.009715,-1.104446 2.215112,-1.988002 3.616189,-2.650669 1.404991,-0.658792 2.962615,-0.992064 4.676782,-0.992064 1.714167,0 3.287445,0.333272 4.719831,0.992064 1.428474,0.662667 2.641697,1.546223 3.635758,2.650669 0.99406,1.104446 1.768959,2.406529 2.328608,3.902373 0.555733,1.495845 0.833601,3.069196 0.833601,4.712301 0,1.643104 -0.277868,3.216455 -0.833601,4.7123 m 0.833601,-24.007155 v 4.328651 c -2.919564,-3.77449 -8.58258,-5.336215 -12.065705,-5.34009 -2.93522,0.0039 -5.623879,0.542534 -8.069896,1.619853 -2.453841,1.077319 -4.555458,2.553788 -6.312676,4.429407 -1.753304,1.87562 -3.123073,4.041883 -4.105392,6.510415 -0.978407,2.468533 -1.471523,5.049447 -1.471523,7.746619 0,2.751425 0.493116,5.340089 1.471523,7.765995 0.982319,2.425905 2.352088,4.584417 4.105392,6.471661 1.757218,1.887246 3.854921,3.371466 6.293108,4.448785 2.430361,1.077318 5.12685,1.615978 8.089464,1.619853 3.483125,-0.0039 9.146141,-1.5656 12.065705,-5.34009 v 4.32865 h 9.110919 V 56.353691 Z m 0,0"
       inkscape:connector-curvature="0" />
    <path
       id="Altibox-letter2"
       style="fill:#ffffff"
       d="m 97.067101,44.979842 h 9.106999 v 49.959682 h -9.106999 z m 0,0"
       inkscape:connector-curvature="0" />
    <path
       id="Altibox-letter3"
       style="fill:#ffffff"
       d="m 117.01876,83.32541 c 0,6.700302 5.0564,11.61799 11.23994,11.61799 h 3.90188 v -7.940381 h -1.63589 c -2.42646,0 -4.39501,-1.980251 -4.39501,-4.421657 V 63.879421 h 6.0309 v -7.52573 h -6.0309 V 44.979842 h -9.10701 v 11.373849 h -5.98393 v 7.52573 h 5.98393 v 17.957894 z m 0,0"
       inkscape:connector-curvature="0" />
    <path
       id="Altibox-letter4-1"
       style="fill:#ffffff"
       d="m 137.45571,45.26661 c 0,3.445094 2.82172,6.235272 6.30094,6.235272 3.47921,0 6.30093,-2.790178 6.30093,-6.235272 0,-3.445094 -2.82172,-6.239147 -6.30093,-6.239147 -3.47922,0 -6.30094,2.794053 -6.30094,6.239147"
       inkscape:connector-curvature="0" />
    <path
       id="Altibox-letter4-2"
       style="fill:#ffffff"
       d="m 139.20119,56.353691 h 9.11091 V 94.9434 h -9.11091 z m 0,0"
       inkscape:connector-curvature="0" />
    <path
       id="Altibox-letter5"
       style="fill:#ffffff"
       d="m 165.04676,75.648546 c 0,1.643104 0.26613,3.216455 0.79447,4.7123 0.53225,1.495845 1.2954,2.797928 2.28947,3.902374 0.99406,1.10832 2.19946,1.988001 3.6162,2.650669 1.4128,0.658791 3.0213,0.992063 4.81766,0.992063 1.71808,0 3.2757,-0.333272 4.67679,-0.992063 1.40107,-0.662668 2.61038,-1.542349 3.61618,-2.650669 1.0058,-1.104446 1.77679,-2.406529 2.30513,-3.902374 0.53225,-1.495845 0.79838,-3.069196 0.79838,-4.7123 0,-1.643105 -0.26613,-3.216456 -0.79838,-4.712301 -0.52834,-1.495844 -1.29933,-2.797927 -2.30513,-3.902373 -1.0058,-1.108321 -2.20728,-1.988002 -3.5927,-2.650669 -1.38934,-0.658792 -2.95871,-0.992064 -4.70027,-0.992064 -1.79636,0 -3.40486,0.333272 -4.81766,0.992064 -1.41674,0.662667 -2.62214,1.542348 -3.6162,2.650669 -0.99407,1.104446 -1.75722,2.398778 -2.28947,3.882997 -0.52834,1.484219 -0.79447,3.061445 -0.79447,4.731677 m 0,19.294854 h -9.11091 V 44.979842 h 9.11091 v 15.7025 c 2.92349,-3.778365 8.57083,-5.34009 12.05005,-5.34009 2.96653,0 5.67085,0.542534 8.10511,1.619853 2.4382,1.077319 4.5359,2.553788 6.29311,4.429407 1.75723,1.87562 3.127,4.038008 4.1054,6.491039 0.98233,2.453031 1.47153,5.041696 1.47153,7.765995 0,2.751425 -0.4892,5.340089 -1.47153,7.765995 -0.9784,2.425905 -2.34817,4.584417 -4.1054,6.471661 -1.75721,1.887246 -3.85883,3.371466 -6.30875,4.448785 -2.45384,1.077318 -5.14642,1.619853 -8.08947,1.619853 v -0.01551 c -3.47922,0 -9.12656,-1.55785 -12.05005,-5.336215 z m 0,0"
       inkscape:connector-curvature="0" />
    <path
       id="Altibox-letter6"
       style="fill:#ffffff"
       d="m 220.41282,86.886762 c -6.41444,0 -11.61173,-5.150203 -11.61173,-11.501733 0,-6.35153 5.19729,-11.497858 11.61173,-11.497858 6.41442,0 11.61564,5.146328 11.61564,11.497858 0,6.35153 -5.20122,11.501733 -11.61564,11.501733 m 0,-31.54451 c -11.17731,0 -20.24128,8.975072 -20.24128,20.042777 0,11.067705 9.06397,20.042777 20.24128,20.042777 11.17731,0 20.24126,-8.975072 20.24126,-20.042777 0,-11.067705 -9.06395,-20.042777 -20.24126,-20.042777"
       inkscape:connector-curvature="0" />
    <path
       id="Altibox-letter7"
       style="fill:#ffffff"
       d="M 239.06514,94.9434 251.81183,75.485786 239.35085,56.353691 h 10.53938 l 7.18934,12.094646 7.18932,-12.094646 h 10.53939 L 262.35122,75.485786 275.05093,94.9434 H 264.51546 L 257.07957,82.523234 249.60453,94.9434 Z m 0,0"
       inkscape:connector-curvature="0" />
  </g>
</svg>
